<svg width="50" height="50" viewBox="0 0 50 50" fill="none" xmlns="http://www.w3.org/2000/svg">
<path fill-rule="evenodd" clip-rule="evenodd" d="M25 6.25C19.9075 6.25 19.27 6.27125 17.27 6.3625C15.2738 6.45375 13.91 6.77125 12.7175 7.235C11.4675 7.705 10.3337 8.4425 9.39625 9.3975C8.44278 10.3339 7.70482 11.4669 7.23375 12.7175C6.7725 13.91 6.45375 15.275 6.3625 17.2713C6.2725 19.27 6.25 19.9062 6.25 25C6.25 30.0938 6.27125 30.73 6.3625 32.73C6.45375 34.7262 6.77125 36.09 7.235 37.2825C7.705 38.5325 8.4425 39.6662 9.3975 40.6037C10.3339 41.5572 11.4669 42.2951 12.7175 42.7663C13.91 43.2287 15.2738 43.5462 17.27 43.6375C19.27 43.7287 19.9075 43.75 25 43.75C30.0925 43.75 30.73 43.7287 32.73 43.6375C34.7262 43.5462 36.09 43.2287 37.2825 42.765C38.5325 42.295 39.6662 41.5575 40.6037 40.6025C41.5572 39.6661 42.2952 38.5331 42.7663 37.2825C43.2287 36.09 43.5462 34.7262 43.6375 32.73C43.7287 30.73 43.75 30.0925 43.75 25C43.75 19.9075 43.7287 19.27 43.6375 17.27C43.5462 15.2738 43.2287 13.91 42.765 12.7175C42.2943 11.4663 41.5563 10.3329 40.6025 9.39625C39.6661 8.44278 38.5331 7.70482 37.2825 7.23375C36.09 6.7725 34.725 6.45375 32.7288 6.3625C30.73 6.2725 30.0938 6.25 25 6.25ZM25 9.62875C30.0063 9.62875 30.6 9.6475 32.5775 9.7375C34.405 9.82125 35.3975 10.125 36.0588 10.3837C36.9338 10.7225 37.5588 11.13 38.215 11.785C38.8713 12.4412 39.2775 13.0662 39.6162 13.9412C39.8738 14.6025 40.1787 15.595 40.2625 17.4225C40.3525 19.4 40.3713 19.9937 40.3713 25C40.3713 30.0063 40.3525 30.6 40.2625 32.5775C40.1787 34.405 39.875 35.3975 39.6162 36.0588C39.3162 36.8732 38.8373 37.61 38.215 38.215C37.6101 38.8375 36.8733 39.3163 36.0588 39.6162C35.3975 39.8738 34.405 40.1787 32.5775 40.2625C30.6 40.3525 30.0075 40.3713 25 40.3713C19.9925 40.3713 19.4 40.3525 17.4225 40.2625C15.595 40.1787 14.6025 39.875 13.9412 39.6162C13.1268 39.3162 12.39 38.8373 11.785 38.215C11.1627 37.6099 10.6839 36.8731 10.3837 36.0588C10.1262 35.3975 9.82125 34.405 9.7375 32.5775C9.6475 30.6 9.62875 30.0063 9.62875 25C9.62875 19.9937 9.6475 19.4 9.7375 17.4225C9.82125 15.595 10.125 14.6025 10.3837 13.9412C10.7225 13.0662 11.13 12.4412 11.785 11.785C12.3899 11.1626 13.1268 10.6837 13.9412 10.3837C14.6025 10.1262 15.595 9.82125 17.4225 9.7375C19.4 9.6475 19.9937 9.62875 25 9.62875Z" fill="black"/>
<path fill-rule="evenodd" clip-rule="evenodd" d="M25 31.2561C24.1785 31.2561 23.3649 31.0942 22.6059 30.7798C21.8468 30.4654 21.1572 30.0046 20.5762 29.4236C19.9953 28.8427 19.5344 28.153 19.22 27.394C18.9056 26.6349 18.7438 25.8214 18.7438 24.9998C18.7438 24.1782 18.9056 23.3647 19.22 22.6056C19.5344 21.8466 19.9953 21.1569 20.5762 20.576C21.1572 19.995 21.8468 19.5342 22.6059 19.2198C23.3649 18.9054 24.1785 18.7436 25 18.7436C26.6593 18.7436 28.2506 19.4027 29.4239 20.576C30.5972 21.7492 31.2563 23.3405 31.2563 24.9998C31.2563 26.6591 30.5972 28.2504 29.4239 29.4236C28.2506 30.5969 26.6593 31.2561 25 31.2561ZM25 15.3623C22.444 15.3623 19.9927 16.3777 18.1853 18.1851C16.3779 19.9924 15.3625 22.4438 15.3625 24.9998C15.3625 27.5558 16.3779 30.0072 18.1853 31.8145C19.9927 33.6219 22.444 34.6373 25 34.6373C27.5561 34.6373 30.0074 33.6219 31.8148 31.8145C33.6222 30.0072 34.6375 27.5558 34.6375 24.9998C34.6375 22.4438 33.6222 19.9924 31.8148 18.1851C30.0074 16.3777 27.5561 15.3623 25 15.3623ZM37.4413 15.1873C37.4413 15.7915 37.2013 16.371 36.774 16.7982C36.3468 17.2254 35.7674 17.4654 35.1632 17.4654C34.559 17.4654 33.9795 17.2254 33.5523 16.7982C33.1251 16.371 32.885 15.7915 32.885 15.1873C32.885 14.5831 33.1251 14.0037 33.5523 13.5764C33.9795 13.1492 34.559 12.9092 35.1632 12.9092C35.7674 12.9092 36.3468 13.1492 36.774 13.5764C37.2013 14.0037 37.4413 14.5831 37.4413 15.1873Z" fill="black"/>
</svg>
