<svg width="45" height="45" viewBox="0 0 45 45" fill="none" xmlns="http://www.w3.org/2000/svg">
<path d="M31.875 38.9062H13.125C6.675 38.9062 2.34375 34.575 2.34375 28.125V16.875C2.34375 10.425 6.675 6.09375 13.125 6.09375H31.875C38.325 6.09375 42.6562 10.425 42.6562 16.875V28.125C42.6562 34.575 38.325 38.9062 31.875 38.9062ZM13.125 8.90625C8.2875 8.90625 5.15625 12.0375 5.15625 16.875V28.125C5.15625 32.9625 8.2875 36.0938 13.125 36.0938H31.875C36.7125 36.0938 39.8438 32.9625 39.8438 28.125V16.875C39.8438 12.0375 36.7125 8.90625 31.875 8.90625H13.125Z" fill="black"/>
<path d="M19.8563 29.1188C19.3126 29.1188 18.7876 28.9876 18.3188 28.7251C17.2313 28.1063 16.5938 26.85 16.5938 25.2938V19.7438C16.5938 18.1875 17.2126 16.9313 18.3188 16.3126C19.4063 15.6938 20.8125 15.8063 22.1438 16.6125L26.7751 19.3875C28.0501 20.1563 28.7813 21.3001 28.7813 22.5188C28.7813 23.7376 28.0501 24.8813 26.7751 25.65L22.1438 28.4251C21.375 28.8751 20.5876 29.1188 19.8563 29.1188ZM19.8563 18.6938C19.7813 18.6938 19.725 18.7125 19.6875 18.7313C19.5563 18.8063 19.4063 19.1438 19.4063 19.725V25.2751C19.4063 25.8376 19.5563 26.1751 19.6875 26.2688C19.8375 26.3438 20.1939 26.3063 20.6814 26.0063L25.3125 23.2313C25.7813 22.9501 25.9501 22.6688 25.9501 22.5C25.9501 22.3313 25.7813 22.0688 25.3125 21.7688L20.6814 18.9938C20.3439 18.7876 20.0438 18.6938 19.8563 18.6938Z" fill="black"/>
</svg>
