    <svg width="40" height="40" viewBox="0 0 40 40" fill="none" xmlns="http://www.w3.org/2000/svg">
    <path d="M30.1926 10.0151C28.397 8.84434 27.1011 6.97119 26.6968 4.7876C26.6095 4.31582 26.5615 3.83028 26.5615 3.3335H20.8308L20.8216 26.3001C20.7253 28.8719 18.6085 30.9361 16.0136 30.9361C15.2071 30.9361 14.4477 30.7345 13.779 30.3827C12.2457 29.5758 11.1964 27.9685 11.1964 26.119C11.1964 23.4627 13.3575 21.3016 16.0136 21.3016C16.5094 21.3016 16.9851 21.3834 17.435 21.5243V15.6739C16.9694 15.6105 16.4963 15.5709 16.0136 15.5709C10.1974 15.5709 5.4657 20.3028 5.4657 26.119C5.4657 29.6875 7.24862 32.8455 9.96867 34.7551C11.682 35.958 13.766 36.6668 16.0136 36.6668C21.8298 36.6668 26.5615 31.9352 26.5615 26.119V14.473C28.8091 16.0862 31.5629 17.0368 34.5343 17.0368V11.3062C32.9337 11.3062 31.4429 10.8303 30.1926 10.0151Z" fill="white"/>
    </svg>
