<svg width="45" height="45" viewBox="0 0 45 45" fill="none" xmlns="http://www.w3.org/2000/svg">
<path d="M3.75002 42.6565C3.37502 42.6565 3.01871 42.5065 2.75621 42.244C2.39996 41.8877 2.25005 41.3627 2.3813 40.8752L4.74382 32.044C3.16882 29.119 2.34377 25.8189 2.34377 22.4814C2.34377 11.3627 11.3813 2.3252 22.5 2.3252C33.6188 2.3252 42.6563 11.3627 42.6563 22.4814C42.6563 33.6002 33.6188 42.6377 22.5 42.6377C19.1063 42.6377 15.7876 41.7939 12.8251 40.1814L4.12504 42.6002C3.99379 42.6377 3.88127 42.6565 3.75002 42.6565ZM13.0125 37.2752C13.2563 37.2752 13.5 37.3502 13.725 37.4627C16.3688 39.019 19.4063 39.844 22.5 39.844C32.0625 39.844 39.8438 32.0627 39.8438 22.5002C39.8438 12.9377 32.0625 5.15646 22.5 5.15646C12.9375 5.15646 5.15626 12.9377 5.15626 22.5002C5.15626 25.5565 5.9625 28.5377 7.48125 31.1627C7.66875 31.4815 7.72503 31.8752 7.63128 32.2315L5.75628 39.2439L12.6563 37.3315C12.7688 37.294 12.9 37.2752 13.0125 37.2752Z" fill="black"/>
<path d="M27.6375 33.2996C26.475 33.2996 25.275 33.037 24.0187 32.4933C22.8375 31.987 21.6562 31.3121 20.5125 30.4683C19.3875 29.6433 18.2813 28.7058 17.2688 27.6933C16.2563 26.662 15.3187 25.5746 14.4937 24.4496C13.6499 23.2683 12.9749 22.1058 12.4874 20.962C11.9624 19.7245 11.7 18.5058 11.7 17.3433C11.7 16.5183 11.8499 15.7308 12.1312 14.9996C12.4312 14.2308 12.9187 13.537 13.5562 12.937C14.7562 11.7558 16.4813 11.3246 17.85 11.9808C18.3188 12.1871 18.7125 12.5246 19.0125 12.9746L21.1874 16.0308C21.4124 16.3308 21.5813 16.6495 21.7125 16.9683C21.8625 17.3433 21.9563 17.7183 21.9563 18.0746C21.9563 18.5621 21.825 19.0496 21.5625 19.4808C21.3937 19.7621 21.1499 20.0996 20.8312 20.4183L20.5874 20.6808C20.6999 20.8308 20.8312 21.0183 21.0374 21.2433C21.4312 21.6933 21.8624 22.1808 22.3312 22.6495C22.7999 23.0995 23.2687 23.5495 23.7374 23.9433C23.9624 24.1308 24.15 24.2808 24.3 24.3746L24.5624 24.112C24.8999 23.7745 25.2375 23.5121 25.575 23.3433C26.1937 22.9496 27.15 22.8558 27.9937 23.2121C28.2937 23.3246 28.5937 23.4933 28.9124 23.7183L32.0438 25.9308C32.475 26.2308 32.8125 26.6433 33.0375 27.112C33.225 27.5808 33.3 27.9933 33.3 28.4246C33.3 28.9871 33.1687 29.5308 32.925 30.0558C32.6812 30.5433 32.3999 30.9746 32.0624 31.3683C31.4624 32.0246 30.7687 32.5121 30.0187 32.8308C29.2687 33.1496 28.4625 33.2996 27.6375 33.2996ZM16.4812 14.512C16.3687 14.512 15.9938 14.512 15.525 14.9808C15.1688 15.3183 14.925 15.6746 14.7562 16.0683C14.5875 16.4621 14.5125 16.9121 14.5125 17.3621C14.5125 18.1496 14.6999 18.9933 15.0749 19.8933C15.4687 20.8308 16.05 21.8246 16.7625 22.8183C17.4937 23.8121 18.3187 24.8058 19.2375 25.7246C20.1562 26.6246 21.1312 27.4683 22.1437 28.2183C23.1187 28.9308 24.1125 29.4933 25.1062 29.9245C26.5312 30.5433 27.8437 30.6933 28.9124 30.2433C29.2874 30.0933 29.6249 29.8308 29.9624 29.4933C30.1312 29.3058 30.2625 29.1183 30.375 28.8745C30.4312 28.7433 30.4687 28.5933 30.4687 28.462C30.4687 28.4245 30.4687 28.3683 30.4124 28.2558L27.2812 26.0808C27.1499 25.9871 27.0187 25.912 26.9062 25.8745C26.8312 25.912 26.7187 25.9683 26.5125 26.1745L25.8 26.8871C25.2562 27.4308 24.3937 27.5808 23.7 27.337L23.3625 27.1871C22.9313 26.9621 22.4437 26.6246 21.9 26.1558C21.375 25.7058 20.8688 25.237 20.325 24.712C19.8 24.1683 19.3312 23.6621 18.8812 23.1371C18.3937 22.5558 18.0562 22.0871 17.8312 21.6933L17.625 21.2058C17.5688 21.0183 17.5499 20.8121 17.5499 20.6246C17.5499 20.0996 17.7375 19.6308 18.0938 19.2558L18.8063 18.5246C19.0125 18.3183 19.0875 18.2058 19.125 18.1308C19.0687 17.9996 18.9938 17.8871 18.9 17.7558L16.7062 14.6621L16.4812 14.512Z" fill="black"/>
</svg>
